HIERARCHY
ROOT Root
{
	OFFSET 0.00 0.00 0.00
	CHANNELS 6 Xposition Yposition Zposition Xrotation Yrotation Zrotation
	End Site
	{
		OFFSET 0.00000 14.53718 0.00000
	}
	End Site
	{
		OFFSET 0.00000 0.00000 8.69486
	}
	End Site
	{
		OFFSET -9.90396 0.00000 0.00000
	}
}
MOTION
Frames: 176
Frame Time: 0.008342
 55.3572 -22.8354 11.0724 0.5532 -0.5886 179.2729
 55.3571 -22.8355 11.0724 0.5528 -0.5888 179.2733
 55.3570 -22.8358 11.0723 0.5523 -0.5889 179.2737
 55.3569 -22.8361 11.0722 0.5517 -0.5887 179.2741
 55.3568 -22.8364 11.0721 0.5510 -0.5882 179.2743
 55.3566 -22.8368 11.0720 0.5501 -0.5874 179.2743
 55.3564 -22.8371 11.0719 0.5492 -0.5863 179.2742
 55.3562 -22.8375 11.0719 0.5483 -0.5850 179.2738
 55.3560 -22.8378 11.0719 0.5474 -0.5835 179.2731
 55.3559 -22.8380 11.0719 0.5464 -0.5821 179.2723
 55.3557 -22.8382 11.0719 0.5455 -0.5806 179.2714
 55.3556 -22.8384 11.0719 0.5445 -0.5793 179.2705
 55.3555 -22.8385 11.0720 0.5436 -0.5782 179.2696
 55.3555 -22.8387 11.0720 0.5426 -0.5773 179.2688
 55.3555 -22.8388 11.0720 0.5416 -0.5767 179.2682
 55.3554 -22.8390 11.0719 0.5407 -0.5762 179.2677
 55.3554 -22.8392 11.0718 0.5397 -0.5759 179.2676
 55.3553 -22.8394 11.0716 0.5388 -0.5756 179.2675
 55.3553 -22.8396 11.0715 0.5380 -0.5754 179.2677
 55.3552 -22.8398 11.0713 0.5374 -0.5752 179.2678
 55.3552 -22.8400 11.0711 0.5369 -0.5750 179.2680
 55.3551 -22.8401 11.0709 0.5367 -0.5747 179.2681
 55.3551 -22.8402 11.0708 0.5367 -0.5745 179.2682
 55.3551 -22.8401 11.0708 0.5370 -0.5744 179.2680
 55.3552 -22.8400 11.0708 0.5377 -0.5744 179.2677
 55.3553 -22.8397 11.0709 0.5386 -0.5745 179.2673
 55.3555 -22.8393 11.0711 0.5397 -0.5750 179.2668
 55.3557 -22.8389 11.0714 0.5411 -0.5757 179.2662
 55.3560 -22.8384 11.0717 0.5426 -0.5767 179.2656
 55.3562 -22.8379 11.0720 0.5443 -0.5778 179.2651
 55.3565 -22.8374 11.0723 0.5459 -0.5791 179.2646
 55.3568 -22.8370 11.0726 0.5474 -0.5804 179.2643
 55.3570 -22.8367 11.0729 0.5489 -0.5816 179.2641
 55.3571 -22.8365 11.0730 0.5501 -0.5826 179.2640
 55.3573 -22.8364 11.0731 0.5512 -0.5833 179.2639
 55.3573 -22.8364 11.0731 0.5520 -0.5836 179.2639
 55.3573 -22.8365 11.0731 0.5525 -0.5835 179.2639
 55.3573 -22.8366 11.0729 0.5527 -0.5831 179.2639
 55.3572 -22.8367 11.0728 0.5526 -0.5823 179.2638
 55.3571 -22.8368 11.0726 0.5523 -0.5814 179.2637
 55.3570 -22.8369 11.0724 0.5517 -0.5803 179.2635
 55.3569 -22.8370 11.0722 0.5511 -0.5794 179.2633
 55.3569 -22.8371 11.0721 0.5503 -0.5786 179.2631
 55.3568 -22.8371 11.0720 0.5494 -0.5780 179.2631
 55.3568 -22.8372 11.0720 0.5486 -0.5778 179.2631
 55.3567 -22.8372 11.0721 0.5480 -0.5780 179.2633
 55.3567 -22.8372 11.0721 0.5475 -0.5785 179.2637
 55.3567 -22.8373 11.0723 0.5472 -0.5793 179.2641
 55.3566 -22.8373 11.0724 0.5471 -0.5802 179.2648
 55.3566 -22.8374 11.0726 0.5472 -0.5813 179.2656
 55.3565 -22.8374 11.0727 0.5475 -0.5823 179.2664
 55.3564 -22.8375 11.0728 0.5479 -0.5832 179.2672
 55.3564 -22.8375 11.0729 0.5484 -0.5838 179.2679
 55.3563 -22.8376 11.0729 0.5487 -0.5842 179.2686
 55.3563 -22.8376 11.0729 0.5489 -0.5842 179.2691
 55.3563 -22.8376 11.0728 0.5489 -0.5839 179.2694
 55.3563 -22.8376 11.0726 0.5485 -0.5833 179.2696
 55.3563 -22.8376 11.0724 0.5478 -0.5826 179.2696
 55.3563 -22.8376 11.0722 0.5469 -0.5816 179.2695
 55.3564 -22.8376 11.0719 0.5457 -0.5807 179.2693
 55.3564 -22.8376 11.0717 0.5443 -0.5797 179.2691
 55.3563 -22.8377 11.0715 0.5430 -0.5789 179.2689
 55.3563 -22.8378 11.0714 0.5417 -0.5783 179.2687
 55.3562 -22.8378 11.0714 0.5408 -0.5778 179.2685
 55.3561 -22.8379 11.0714 0.5401 -0.5776 179.2684
 55.3560 -22.8380 11.0715 0.5398 -0.5777 179.2684
 55.3559 -22.8380 11.0717 0.5398 -0.5780 179.2686
 55.3558 -22.8380 11.0719 0.5402 -0.5785 179.2688
 55.3557 -22.8379 11.0721 0.5407 -0.5792 179.2691
 55.3556 -22.8378 11.0724 0.5414 -0.5799 179.2695
 55.3556 -22.8377 11.0726 0.5420 -0.5806 179.2699
 55.3557 -22.8376 11.0727 0.5424 -0.5812 179.2703
 55.3558 -22.8375 11.0727 0.5427 -0.5816 179.2705
 55.3559 -22.8374 11.0727 0.5426 -0.5817 179.2706
 55.3560 -22.8373 11.0726 0.5424 -0.5815 179.2705
 55.3561 -22.8373 11.0724 0.5419 -0.5809 179.2701
 55.3562 -22.8373 11.0721 0.5415 -0.5799 179.2694
 55.3562 -22.8373 11.0719 0.5413 -0.5787 179.2684
 55.3562 -22.8373 11.0717 0.5414 -0.5773 179.2671
 55.3562 -22.8373 11.0715 0.5420 -0.5759 179.2657
 55.3562 -22.8372 11.0715 0.5430 -0.5747 179.2642
 55.3562 -22.8371 11.0715 0.5444 -0.5737 179.2629
 55.3562 -22.8369 11.0716 0.5462 -0.5734 179.2619
 55.3562 -22.8367 11.0718 0.5479 -0.5736 179.2615
 55.3563 -22.8366 11.0721 0.5493 -0.5747 179.2618
 55.3564 -22.8365 11.0723 0.5498 -0.5766 179.2631
 55.3565 -22.8367 11.0724 0.5492 -0.5792 179.2656
 55.3567 -22.8371 11.0724 0.5469 -0.5823 179.2694
 55.3569 -22.8379 11.0723 0.5427 -0.5859 179.2744
 55.3570 -22.8391 11.0718 0.5363 -0.5896 179.2806
 55.3571 -22.8407 11.0711 0.5278 -0.5932 179.2878
 55.3572 -22.8426 11.0702 0.5174 -0.5965 179.2959
 55.3571 -22.8449 11.0690 0.5053 -0.5993 179.3046
 55.3569 -22.8475 11.0677 0.4921 -0.6013 179.3135
 55.3567 -22.8502 11.0663 0.4785 -0.6026 179.3223
 55.3563 -22.8528 11.0648 0.4650 -0.6031 179.3308
 55.3559 -22.8554 11.0635 0.4524 -0.6031 179.3386
 55.3555 -22.8576 11.0623 0.4411 -0.6027 179.3456
 55.3552 -22.8594 11.0613 0.4317 -0.6022 179.3517
 55.3549 -22.8607 11.0607 0.4244 -0.6018 179.3569
 55.3547 -22.8615 11.0603 0.4193 -0.6018 179.3611
 55.3547 -22.8619 11.0602 0.4162 -0.6024 179.3645
 55.3549 -22.8618 11.0603 0.4148 -0.6037 179.3673
 55.3551 -22.8615 11.0606 0.4146 -0.6057 179.3696
 55.3554 -22.8610 11.0610 0.4152 -0.6082 179.3717
 55.3557 -22.8606 11.0614 0.4158 -0.6112 179.3737
 55.3560 -22.8604 11.0616 0.4160 -0.6143 179.3759
 55.3563 -22.8604 11.0617 0.4153 -0.6173 179.3782
 55.3563 -22.8609 11.0615 0.4133 -0.6198 179.3808
 55.3562 -22.8619 11.0611 0.4099 -0.6216 179.3837
 55.3559 -22.8633 11.0605 0.4050 -0.6224 179.3869
 55.3554 -22.8651 11.0596 0.3989 -0.6222 179.3902
 55.3546 -22.8672 11.0586 0.3917 -0.6210 179.3936
 55.3538 -22.8695 11.0575 0.3839 -0.6189 179.3969
 55.3529 -22.8718 11.0564 0.3760 -0.6162 179.3999
 55.3520 -22.8740 11.0555 0.3683 -0.6132 179.4026
 55.3512 -22.8759 11.0547 0.3613 -0.6102 179.4047
 55.3506 -22.8774 11.0542 0.3553 -0.6075 179.4064
 55.3502 -22.8785 11.0540 0.3506 -0.6055 179.4074
 55.3500 -22.8791 11.0541 0.3472 -0.6044 179.4078
 55.3501 -22.8792 11.0545 0.3453 -0.6042 179.4076
 55.3505 -22.8789 11.0552 0.3446 -0.6049 179.4069
 55.3510 -22.8783 11.0560 0.3450 -0.6064 179.4058
 55.3517 -22.8774 11.0569 0.3463 -0.6085 179.4043
 55.3525 -22.8763 11.0579 0.3482 -0.6109 179.4027
 55.3533 -22.8753 11.0588 0.3503 -0.6134 179.4009
 55.3541 -22.8743 11.0596 0.3524 -0.6155 179.3991
 55.3547 -22.8733 11.0602 0.3544 -0.6172 179.3974
 55.3553 -22.8726 11.0606 0.3560 -0.6182 179.3959
 55.3556 -22.8720 11.0608 0.3572 -0.6184 179.3947
 55.3558 -22.8715 11.0608 0.3580 -0.6179 179.3936
 55.3559 -22.8712 11.0606 0.3584 -0.6168 179.3928
 55.3559 -22.8710 11.0603 0.3586 -0.6152 179.3922
 55.3559 -22.8707 11.0600 0.3586 -0.6136 179.3918
 55.3558 -22.8705 11.0597 0.3587 -0.6120 179.3915
 55.3558 -22.8702 11.0595 0.3590 -0.6108 179.3912
 55.3558 -22.8698 11.0593 0.3595 -0.6101 179.3910
 55.3560 -22.8694 11.0594 0.3604 -0.6101 179.3908
 55.3562 -22.8690 11.0595 0.3616 -0.6108 179.3906
 55.3565 -22.8685 11.0599 0.3631 -0.6121 179.3904
 55.3568 -22.8680 11.0604 0.3648 -0.6138 179.3902
 55.3572 -22.8676 11.0609 0.3667 -0.6159 179.3900
 55.3575 -22.8672 11.0615 0.3684 -0.6180 179.3898
 55.3578 -22.8670 11.0620 0.3699 -0.6198 179.3895
 55.3580 -22.8669 11.0625 0.3711 -0.6213 179.3894
 55.3581 -22.8670 11.0628 0.3718 -0.6220 179.3892
 55.3581 -22.8672 11.0630 0.3719 -0.6220 179.3890
 55.3580 -22.8674 11.0630 0.3714 -0.6212 179.3887
 55.3577 -22.8677 11.0628 0.3705 -0.6197 179.3883
 55.3575 -22.8680 11.0625 0.3691 -0.6177 179.3879
 55.3572 -22.8683 11.0621 0.3675 -0.6153 179.3873
 55.3569 -22.8684 11.0617 0.3658 -0.6128 179.3866
 55.3566 -22.8685 11.0613 0.3643 -0.6105 179.3858
 55.3565 -22.8684 11.0610 0.3631 -0.6086 179.3849
 55.3564 -22.8682 11.0608 0.3623 -0.6073 179.3841
 55.3564 -22.8679 11.0607 0.3621 -0.6067 179.3833
 55.3566 -22.8675 11.0608 0.3625 -0.6070 179.3827
 55.3568 -22.8671 11.0611 0.3633 -0.6080 179.3823
 55.3570 -22.8666 11.0614 0.3646 -0.6097 179.3823
 55.3573 -22.8662 11.0619 0.3661 -0.6117 179.3826
 55.3575 -22.8659 11.0623 0.3676 -0.6141 179.3832
 55.3578 -22.8657 11.0628 0.3690 -0.6163 179.3842
 55.3579 -22.8656 11.0631 0.3701 -0.6182 179.3854
 55.3580 -22.8657 11.0633 0.3706 -0.6196 179.3867
 55.3579 -22.8659 11.0634 0.3706 -0.6203 179.3880
 55.3578 -22.8662 11.0634 0.3700 -0.6203 179.3892
 55.3576 -22.8666 11.0632 0.3690 -0.6196 179.3901
 55.3574 -22.8670 11.0628 0.3675 -0.6183 179.3907
 55.3572 -22.8674 11.0624 0.3659 -0.6165 179.3908
 55.3570 -22.8677 11.0620 0.3642 -0.6144 179.3905
 55.3568 -22.8680 11.0616 0.3628 -0.6124 179.3898
 55.3567 -22.8681 11.0613 0.3617 -0.6107 179.3888
 55.3566 -22.8682 11.0610 0.3611 -0.6093 179.3877
 55.3567 -22.8682 11.0610 0.3611 -0.6086 179.3864
 55.3568 -22.8680 11.0610 0.3616 -0.6085 179.3852
 55.3569 -22.8679 11.0612 0.3626 -0.6090 179.3841
